<svg width="406" height="148" viewBox="0 0 406 148" fill="none" xmlns="http://www.w3.org/2000/svg">
<path d="M67.2 143H66.2V144H67.2V143ZM67.2 29.6H68.2V27.7683L66.6592 28.7588L67.2 29.6ZM9.53674e-07 72.8H-1V74.6317L0.540758 73.6412L9.53674e-07 72.8ZM9.53674e-07 44.6L-0.465009 43.7147L-1 43.9957V44.6H9.53674e-07ZM79.2 2.99999V1.99999H78.9534L78.735 2.11469L79.2 2.99999ZM95.6 2.99999H96.6V1.99999H95.6V2.99999ZM95.6 143V144H96.6V143H95.6ZM68.2 143V29.6H66.2V143H68.2ZM66.6592 28.7588L-0.540757 71.9588L0.540758 73.6412L67.7408 30.4412L66.6592 28.7588ZM1 72.8V44.6H-1V72.8H1ZM0.46501 45.4853L79.665 3.8853L78.735 2.11469L-0.465009 43.7147L0.46501 45.4853ZM79.2 3.99999H95.6V1.99999H79.2V3.99999ZM94.6 2.99999V143H96.6V2.99999H94.6ZM95.6 142H67.2V144H95.6V142ZM206.289 147L206.294 146L206.285 146L206.289 147ZM172.089 74.2L172.195 75.1944L172.263 73.2152L172.089 74.2ZM236.689 74.2L236.515 73.2152L236.583 75.1944L236.689 74.2ZM206.285 146C183.245 146.1 163.567 143.153 149.687 136.669C135.857 130.208 127.889 120.306 127.889 106.4H125.889C125.889 121.294 134.521 131.792 148.841 138.481C163.111 145.147 183.133 148.1 206.293 148L206.285 146ZM127.889 106.4C127.889 95.0719 134.184 87.8108 142.915 83.0792C151.691 78.3236 162.834 76.1902 172.195 75.1944L171.983 73.2056C162.544 74.2098 151.087 76.3764 141.963 81.3208C132.794 86.2892 125.889 94.1281 125.889 106.4H127.889ZM172.263 73.2152C163.825 71.7262 153.682 68.8088 145.674 63.3965C137.701 58.0079 131.889 50.1883 131.889 38.8H129.889C129.889 51.0117 136.177 59.3921 144.554 65.0535C152.896 70.6912 163.353 73.6738 171.915 75.1848L172.263 73.2152ZM131.889 38.8C131.889 26.67 138.685 17.3685 151.19 11.0423C163.741 4.69331 181.961 1.39999 204.489 1.39999V-0.600014C181.817 -0.600014 163.237 2.70667 150.288 9.25768C137.293 15.8315 129.889 25.73 129.889 38.8H131.889ZM204.489 1.39999C224.609 1.39999 242.844 4.49086 256.01 10.753C269.16 17.008 277.089 26.327 277.089 38.8H279.089C279.089 25.273 270.418 15.392 256.869 8.94695C243.334 2.50912 224.769 -0.600014 204.489 -0.600014V1.39999ZM277.089 38.8C277.089 50.1847 271.231 58.0046 263.206 63.3949C255.148 68.8083 244.954 71.726 236.515 73.2152L236.863 75.1848C245.424 73.674 255.931 70.6917 264.322 65.0551C272.747 59.3954 279.089 51.0153 279.089 38.8H277.089ZM236.583 75.1944C245.944 76.1902 257.138 78.3238 265.965 83.0803C274.748 87.8137 281.089 95.0755 281.089 106.4H283.089C283.089 94.1245 276.13 86.2863 266.913 81.3197C257.74 76.3762 246.234 74.2098 236.795 73.2056L236.583 75.1944ZM281.089 106.4C281.089 118.706 273.52 128.621 260.303 135.488C247.071 142.363 228.297 146.1 206.294 146L206.285 148C228.481 148.1 247.608 144.337 261.225 137.262C274.859 130.179 283.089 119.694 283.089 106.4H281.089ZM204.489 63.2C221.413 63.2 232.847 61.5542 240.079 58.26C243.715 56.6036 246.337 54.5094 248.042 51.9555C249.752 49.3969 250.489 46.456 250.489 43.2H248.489C248.489 46.144 247.827 48.678 246.379 50.8445C244.929 53.0156 242.638 54.8964 239.25 56.44C232.431 59.5458 221.365 61.2 204.489 61.2V63.2ZM250.489 43.2C250.489 36.4761 245.189 31.3747 237.047 28.0012C228.857 24.6079 217.463 22.8 204.489 22.8V24.8C217.315 24.8 228.421 26.5921 236.281 29.8488C244.189 33.1253 248.489 37.7239 248.489 43.2H250.489ZM204.489 22.8C191.515 22.8 180.121 24.6079 171.931 28.0012C163.789 31.3747 158.489 36.4761 158.489 43.2H160.489C160.489 37.7239 164.789 33.1253 172.697 29.8488C180.557 26.5921 191.663 24.8 204.489 24.8V22.8ZM158.489 43.2C158.489 46.4426 159.17 49.3797 160.813 51.94C162.455 54.499 165.003 56.5981 168.595 58.2578C175.731 61.5553 187.17 63.2 204.489 63.2V61.2C187.208 61.2 176.147 59.5447 169.434 56.4422C166.1 54.9019 163.886 53.026 162.496 50.86C161.108 48.6953 160.489 46.1574 160.489 43.2H158.489ZM204.489 124.6C219.543 124.6 231.932 122.897 240.596 119.584C249.225 116.285 254.489 111.235 254.489 104.4H252.489C252.489 109.965 248.253 114.515 239.882 117.716C231.546 120.903 219.435 122.6 204.489 122.6V124.6ZM254.489 104.4C254.489 101.166 253.65 98.2585 251.749 95.7439C249.859 93.2426 246.976 91.2059 243.015 89.5984C235.125 86.3963 222.71 84.8 204.489 84.8V86.8C222.668 86.8 234.753 88.4037 242.263 91.4516C246.002 92.9691 248.544 94.8199 250.154 96.9498C251.753 99.0665 252.489 101.534 252.489 104.4H254.489ZM204.489 84.8C186.169 84.8 173.753 86.3961 165.887 89.5988C161.938 91.2069 159.073 93.2446 157.198 95.7474C155.314 98.2627 154.489 101.17 154.489 104.4H156.489C156.489 101.53 157.214 99.0623 158.799 96.9464C160.393 94.8179 162.916 92.9681 166.641 91.4512C174.125 88.4039 186.209 86.8 204.489 86.8V84.8ZM154.489 104.4C154.489 111.231 159.697 116.282 168.306 119.584C176.946 122.897 189.336 124.6 204.489 124.6V122.6C189.442 122.6 177.332 120.903 169.022 117.716C160.681 114.518 156.489 109.969 156.489 104.4H154.489ZM342.206 128.8H341.206V129.8H342.206V128.8ZM342.206 88.2H343.206V87.2H342.206V88.2ZM301.406 88.2H300.406V89.2H301.406V88.2ZM301.406 65.6V64.6H300.406V65.6H301.406ZM342.006 65.6V66.6H343.006V65.6H342.006ZM342.006 24.8V23.8H341.006V24.8H342.006ZM364.606 24.8H365.606V23.8H364.606V24.8ZM364.606 65.6H363.606V66.6H364.606V65.6ZM405.406 65.6H406.406V64.6H405.406V65.6ZM405.406 88.2V89.2H406.406V88.2H405.406ZM364.806 88.2V87.2H363.806V88.2H364.806ZM364.806 128.8V129.8H365.806V128.8H364.806ZM343.206 128.8V88.2H341.206V128.8H343.206ZM342.206 87.2H301.406V89.2H342.206V87.2ZM302.406 88.2V65.6H300.406V88.2H302.406ZM301.406 66.6H342.006V64.6H301.406V66.6ZM343.006 65.6V24.8H341.006V65.6H343.006ZM342.006 25.8H364.606V23.8H342.006V25.8ZM363.606 24.8V65.6H365.606V24.8H363.606ZM364.606 66.6H405.406V64.6H364.606V66.6ZM404.406 65.6V88.2H406.406V65.6H404.406ZM405.406 87.2H364.806V89.2H405.406V87.2ZM363.806 88.2V128.8H365.806V88.2H363.806ZM364.806 127.8H342.206V129.8H364.806V127.8Z" fill="white"/>
</svg>
