<svg width="112" height="132" viewBox="0 0 112 132" fill="none" xmlns="http://www.w3.org/2000/svg">
<path d="M28.5055 111.348L35.2339 109.363L37.88 110.76L30.507 112.766L32.907 120.799L30.1194 119.328L28.1993 111.928L25.5631 116.923L23.3698 115.766L28.5975 105.861L30.7908 107.018L28.5055 111.348Z" fill="white"/>
<path d="M50.7587 115.449L46.7382 114.857L46.5912 115.854C46.4652 116.709 46.1011 118.192 45.7921 118.971C45.4054 119.949 44.6805 121.136 43.9842 122.02L49.6668 122.857L50.7587 115.449ZM52.1319 123.14L54.0314 123.42L53.2361 127.718L51.1625 127.412L51.5172 125.006L41.9565 123.597L41.6018 126.003L39.5441 125.7L40.0251 121.339L41.5922 121.57C42.2973 120.736 42.983 119.705 43.4079 118.797C44.0155 117.528 44.2333 116.38 44.4176 115.129L44.777 112.692L53.4829 113.975L52.1319 123.14Z" fill="white"/>
<path d="M59.3926 118.315L65.7553 117.626L65.9553 119.471L59.5925 120.161L59.9045 123.04L67.4603 122.221L67.6637 124.098L57.6424 125.184L56.4358 114.049L66.2662 112.984L66.4696 114.861L59.1047 115.659L59.3926 118.315Z" fill="white"/>
<path d="M70.6356 123.561L70.0195 121.861C70.1809 121.837 70.3217 121.803 70.5022 121.737C70.8933 121.595 71.2572 121.378 71.4886 120.937C71.8503 120.245 71.6176 119.274 71.4706 118.68C71.3807 118.338 71.1288 117.409 70.6327 116.04L69.237 112.189L77.721 109.114L81.5373 119.644L79.2057 120.489L76.0436 111.764L72.0273 113.22L72.8342 115.446C73.194 116.439 73.6245 117.815 73.8312 118.761C74.0271 119.677 74.1667 120.766 73.6996 121.685C73.353 122.372 72.6347 122.972 71.6269 123.338C71.2659 123.469 70.9486 123.533 70.6356 123.561Z" fill="white"/>
<path d="M87.2974 110.402L86.1612 103.778L88.2472 102.407L89.5369 111.975C89.6469 112.783 89.7683 113.871 89.4703 114.642C89.1722 115.412 88.4991 115.873 88.0311 116.181C87.2689 116.681 86.8505 116.861 86.3795 116.96L85.3954 115.462C85.7996 115.407 86.1202 115.254 86.4143 115.06C86.7219 114.858 87.0566 114.581 87.1834 114.191C87.2151 114.094 87.3015 113.788 87.2075 113.237L87.1308 112.771L79.1945 108.356L81.4811 106.853L87.2974 110.402Z" fill="white"/>
<path d="M10.0355 31.3886L17.315 37.1442L15.7768 39.0896L6.99122 32.1431L13.63 23.7466L22.4156 30.693L20.8775 32.6384L13.598 26.8828L10.0355 31.3886Z" fill="white"/>
<path d="M21.8123 22.5868L26.9324 18.7469L28.046 20.2317L22.9259 24.0717L24.6635 26.3885L30.7436 21.8285L31.8763 23.3389L23.8123 29.3869L17.0924 20.4268L25.0028 14.4941L26.1356 16.0045L20.2092 20.4492L21.8123 22.5868Z" fill="white"/>
<path d="M32.3347 12.8707L33.6694 16.0932L36.2415 15.0279C37.0841 14.6789 37.5499 14.382 37.819 14.0281C38.0412 13.7283 38.3107 13.1664 37.9739 12.3534C37.7352 11.7769 37.3247 11.4966 36.851 11.3984C36.4401 11.3261 35.8824 11.4013 34.9363 11.7931L32.3347 12.8707ZM29.3087 12.0458L34.6303 9.84167C35.5468 9.46207 36.9731 8.97525 38.2314 9.3373C38.9411 9.54557 39.7942 10.0582 40.3207 11.3294C40.7677 12.4085 40.7287 13.3598 40.4577 14.0436C39.9479 15.3631 38.6246 16.0151 37.2055 16.6028L34.3674 17.7784L35.8858 21.4444L33.5945 22.3934L29.3087 12.0458Z" fill="white"/>
<path d="M45.7457 11.2751L52.0808 10.3661L52.3444 12.2033L46.0093 13.1123L46.4206 15.9789L53.9436 14.8995L54.2117 16.7683L44.2339 18.2L42.6432 7.11358L52.4309 5.70916L52.6991 7.57802L45.3662 8.6302L45.7457 11.2751Z" fill="white"/>
<path d="M61.9219 10.1036L65.3416 6.46688L68.1889 6.77542L63.1842 11.6728L67.0619 17.9189L63.9123 17.5776L61.4143 13.1547L57.9631 16.9329L54.9408 16.6054L60.1142 11.3401L56.3542 5.49299L59.3606 5.81877L61.9219 10.1036Z" fill="white"/>
<path d="M76.7136 11.2764C75.4197 10.7631 74.4485 10.9114 73.8105 11.1746C72.8875 11.5486 72.0878 12.4362 71.6275 13.5963C71.1673 14.7563 71.1468 15.9359 71.5623 16.8409C71.9002 17.5946 72.6391 18.3354 73.7396 18.772C74.855 19.2146 75.9067 19.1671 76.6635 18.8649C77.5657 18.4999 78.3654 17.6122 78.8257 16.4522C79.28 15.307 79.3123 14.0977 78.9116 13.1985C78.6366 12.5902 78.0223 11.7957 76.7136 11.2764ZM77.4247 9.52741C79.9976 10.5482 80.9438 12.1114 81.2845 12.8146C81.8882 14.0697 82.0202 15.6024 81.2945 17.4317C80.4743 19.4989 79.1576 20.388 78.1218 20.7861C76.7802 21.3038 74.947 21.2822 73.0582 20.5328C71.1546 19.7775 69.8201 18.5423 69.1984 17.2457C68.7501 16.2932 68.3593 14.675 69.1736 12.6227C69.9997 10.5405 71.3877 9.64532 72.3612 9.27417C73.495 8.84613 75.2385 8.66001 77.4247 9.52741Z" fill="white"/>
<path d="M92.9092 21.3519L89.7213 18.8314L89.0961 19.6221C88.5603 20.2998 87.5046 21.4028 86.8479 21.9238C86.0245 22.5782 84.8039 23.2449 83.7593 23.6632L88.265 27.2257L92.9092 21.3519ZM90.26 28.7011L91.7661 29.8919L88.9315 33.2191L87.2874 31.9191L88.7957 30.0114L81.215 24.0176L79.7066 25.9253L78.075 24.6353L80.6685 21.0971L81.9111 22.0795C82.9385 21.7088 84.0473 21.1577 84.8686 20.5833C86.0285 19.787 86.7906 18.9006 87.5745 17.9091L89.1028 15.9762L96.0057 21.4342L90.26 28.7011Z" fill="white"/>
<path d="M94.8949 32.2082L105.061 32.5758L106.509 34.6286L97.3566 41.0839L95.9272 39.0573L102.595 34.3541L92.3768 34.0234L90.929 31.9706L100.082 25.5153L101.511 27.5419L94.8949 32.2082Z" fill="white"/>
</svg>
