<svg width="116" height="132" viewBox="0 0 116 132" fill="none" xmlns="http://www.w3.org/2000/svg">
<path d="M17.9419 31.4195L19.7782 29.6358L19.834 29.6932C20.4137 30.29 21.0695 30.3221 21.478 30.2376C22.1361 30.1113 22.9038 29.4549 23.3284 29.0424C24.2466 28.1506 24.4696 27.5994 24.5168 27.4643C24.6109 27.2167 24.8142 26.4616 24.1676 25.7959C23.6994 25.3139 23.1797 25.2611 22.6223 25.468C22.0648 25.6749 21.3772 26.2759 21.0558 26.588L20.1721 27.4464L18.9793 26.2184L19.7597 25.4603C20.4368 24.8026 20.7602 24.3547 20.9015 23.972C21.1481 23.3533 20.974 22.8755 20.6396 22.5312C20.3497 22.2328 19.8553 21.9993 19.1388 22.2492C18.5928 22.4449 17.9977 22.9115 17.6189 23.2794C17.1943 23.6919 16.6418 24.3401 16.486 24.9375C16.3669 25.3431 16.3689 25.9881 16.8148 26.4472L16.8371 26.4701L15.0237 28.2315C14.4332 27.6006 13.8362 26.6415 14.2205 25.1083C14.5573 23.7327 15.6027 22.6504 16.3717 21.9035C17.3931 20.9113 18.8251 19.6988 20.4092 19.6992C21.2578 19.7002 21.8755 20.0147 22.4218 20.577C22.8231 20.9902 23.1667 21.4817 23.1569 22.1605C23.149 22.7035 22.8916 23.2881 22.5004 23.735L22.5449 23.7809C23.0598 23.3924 23.7995 23.0976 24.4445 23.0957C25.3157 23.097 25.9194 23.6037 26.2538 23.948C27.3017 25.0268 27.3302 26.1814 27.1033 27.004C26.8888 27.7477 26.3316 28.7127 24.5986 30.3961C23.3247 31.6335 22.2842 32.3765 21.2176 32.5873C19.6745 32.8817 18.6331 32.1311 17.9865 31.4654L17.9419 31.4195Z" fill="white"/>
<path d="M30.1493 20.3188L33.5537 18.4079L29.5586 15.311L30.1493 20.3188ZM30.3979 22.0691L30.682 24.8636L28.4078 26.1402L27.3348 13.8988L29.5253 12.6692L39.4162 19.9612L37.142 21.2377L34.8905 19.5474L30.3979 22.0691Z" fill="white"/>
<path d="M41.2813 13.0039L44.8956 6.99148L47.7893 6.23083L43.7148 12.6951L50.9152 16.9896L47.8667 17.791L41.4481 13.6383L42.884 19.1007L40.4855 19.7312L37.6381 8.8992L40.0367 8.26871L41.2813 13.0039Z" fill="white"/>
<path d="M54.2294 7.73965L54.2563 11.2276L57.0402 11.2061C57.9522 11.199 58.4955 11.0988 58.8777 10.8719C59.1962 10.6774 59.657 10.2578 59.6502 9.37785C59.6454 8.75387 59.3702 8.33998 58.9681 8.07108C58.6144 7.8498 58.0693 7.71001 57.0453 7.71791L54.2294 7.73965ZM51.7347 5.83886L57.4945 5.79439C58.4865 5.78673 59.9911 5.87112 61.0214 6.67919C61.601 7.13873 62.1991 7.93413 62.2098 9.31009C62.2188 10.4781 61.8255 11.3451 61.3176 11.8771C60.3495 12.9086 58.8783 13.0159 57.3423 13.0278L54.2704 13.0515L54.301 17.0194L51.8211 17.0385L51.7347 5.83886Z" fill="white"/>
<path d="M67.2652 11.2714L73.4789 12.8042L73.0344 14.6062L66.8206 13.0734L66.127 15.8851L73.5059 17.7053L73.0537 19.5383L63.2671 17.1242L65.9494 6.25015L75.5497 8.61832L75.0975 10.4514L67.9051 8.67716L67.2652 11.2714Z" fill="white"/>
<path d="M81.5299 13.2452L77.0475 21.3708L74.876 20.173L80.2857 10.3661L89.6583 15.5363L84.2485 25.3432L82.077 24.1453L86.5594 16.0196L81.5299 13.2452Z" fill="white"/>
<path d="M89.6704 25.8319L99.7459 24.4263L101.529 26.1961L93.6378 34.1444L91.8778 32.3972L97.6268 26.6063L87.5062 28.0573L85.7236 26.2875L93.6143 18.3392L95.3743 20.0864L89.6704 25.8319Z" fill="white"/>
<path d="M15.0329 94.3288L12.3047 96.5021L14.0393 98.6796C14.6076 99.393 15.0216 99.7586 15.4361 99.9194C15.7856 100.05 16.4001 100.154 17.0884 99.6055C17.5765 99.2167 17.7324 98.7448 17.6959 98.2624C17.6518 97.8475 17.4255 97.3323 16.7875 96.5314L15.0329 94.3288ZM14.9894 91.1927L18.5783 95.698C19.1964 96.4739 20.0584 97.7101 20.0582 99.0195C20.0542 99.7591 19.7973 100.721 18.721 101.578C17.8075 102.306 16.8824 102.531 16.1504 102.46C14.7414 102.334 13.7491 101.243 12.7921 100.041L10.878 97.6386L7.77439 100.111L6.22918 98.1711L14.9894 91.1927Z" fill="white"/>
<path d="M21.4809 105.229L26.5156 109.18L25.3698 110.64L20.3351 106.689L18.5472 108.968L24.526 113.66L23.3604 115.145L15.4306 108.922L22.345 100.111L30.1238 106.215L28.9582 107.701L23.1304 103.127L21.4809 105.229Z" fill="white"/>
<path d="M28.4629 114.115L30.7939 115.174L30.7608 115.246C30.4168 116.004 30.6263 116.626 30.8541 116.976C31.2119 117.542 32.1032 118.017 32.6423 118.262C33.8077 118.791 34.4023 118.798 34.5453 118.792C34.8101 118.79 35.5874 118.703 35.9711 117.858C36.2489 117.247 36.1084 116.743 35.7123 116.3C35.3162 115.857 34.5056 115.436 34.0977 115.251L32.9759 114.741L33.6838 113.182L34.6744 113.632C35.534 114.022 36.069 114.16 36.4768 114.152C37.1429 114.156 37.5241 113.819 37.7226 113.382C37.8946 113.003 37.9314 112.458 37.4373 111.882C37.0558 111.445 36.4041 111.061 35.9234 110.843C35.3844 110.598 34.5792 110.32 33.9661 110.394C33.545 110.431 32.9453 110.668 32.6806 111.251L32.6674 111.28L30.3656 110.235C30.7374 109.455 31.4124 108.549 32.9801 108.347C34.3837 108.158 35.7729 108.736 36.749 109.18C38.0456 109.768 39.6972 110.659 40.2751 112.134C40.5839 112.924 40.5167 113.614 40.1925 114.328C39.9544 114.852 39.6222 115.352 38.9867 115.59C38.4783 115.781 37.84 115.755 37.2811 115.554L37.2547 115.612C37.8043 115.95 38.3488 116.531 38.586 117.13C38.9028 117.942 38.6515 118.689 38.4531 119.126C37.8312 120.495 36.7667 120.943 35.918 121.032C35.1474 121.104 34.0456 120.938 31.8458 119.939C30.2287 119.205 29.1571 118.507 28.5715 117.591C27.7341 116.262 28.0528 115.018 28.4365 114.173L28.4629 114.115Z" fill="white"/>
<path d="M46.9594 119.067L50.7751 113.534L53.2251 114.011L47.4627 121.757C46.9765 122.412 46.3031 123.275 45.5518 123.618C44.8004 123.96 43.9964 123.82 43.4467 123.713C42.5515 123.539 42.1271 123.375 41.721 123.116L42.0634 121.357C42.391 121.6 42.7274 121.715 43.0729 121.782C43.4341 121.852 43.8673 121.888 44.2303 121.698C44.3211 121.65 44.5964 121.492 44.9141 121.032L45.1851 120.645L42.5928 111.941L45.2783 112.464L46.9594 119.067Z" fill="white"/>
<path d="M53.1809 125.186L53.1041 123.38C53.2653 123.405 53.4099 123.415 53.6017 123.407C54.0173 123.389 54.4296 123.292 54.783 122.94C55.3361 122.388 55.4059 121.392 55.444 120.782C55.461 120.429 55.5002 119.467 55.4384 118.012L55.2646 113.92L64.2805 113.537L64.7558 124.727L62.278 124.832L61.8842 115.56L57.616 115.742L57.7165 118.107C57.7613 119.162 57.7585 120.604 57.6714 121.568C57.5829 122.501 57.3886 123.582 56.6671 124.318C56.13 124.869 55.2644 125.226 54.1934 125.271C53.8097 125.288 53.488 125.253 53.1809 125.186Z" fill="white"/>
<path d="M70.3115 118.407L71.2068 121.479L74.3251 120.571C75.0778 120.351 75.6391 120.104 75.9023 119.578C76.1373 119.126 76.0625 118.698 75.9729 118.391C75.8744 118.053 75.6921 117.656 75.2141 117.445C74.8704 117.295 74.2746 117.252 73.1379 117.584L70.3115 118.407ZM68.5924 112.509L69.8011 116.656L72.904 115.752C74.6091 115.255 75.7451 115.207 76.5553 115.471C77.8058 115.873 78.2613 116.807 78.4851 117.575C78.9373 119.127 78.4743 120.111 78.1011 120.603C77.3809 121.563 75.8582 122.057 74.9827 122.312L69.3452 123.955L66.2115 113.203L68.5924 112.509Z" fill="white"/>
<path d="M81.3872 109.63L77.8639 111.59L76.9304 109.912L86.13 104.793L87.0636 106.471L83.5543 108.424L88.0666 116.533L85.8995 117.739L81.3872 109.63Z" fill="white"/>
<path d="M93.3903 107.628L96.2972 105.022L91.7238 102.869L93.3903 107.628ZM94.0139 109.283L94.8995 111.948L92.9577 113.689L89.2459 101.975L91.1163 100.298L102.357 105.262L100.415 107.003L97.85 105.844L94.0139 109.283Z" fill="white"/>
<path d="M98.7358 94.5628L96.3999 97.8492L94.8349 96.7369L100.934 88.1557L102.499 89.2681L100.173 92.5414L107.737 97.9178L106.3 99.9392L98.7358 94.5628Z" fill="white"/>
</svg>
