<svg width="125" height="132" viewBox="0 0 125 132" fill="none" xmlns="http://www.w3.org/2000/svg">
<path d="M32.7226 20.9626L31.3688 14.3794L33.4085 12.9408L35.0126 22.4605C35.1492 23.2649 35.3064 24.3483 35.0339 25.1279C34.7614 25.9075 34.1038 26.3909 33.6462 26.7136C32.9009 27.2393 32.4887 27.4321 32.0211 27.5465L30.9883 26.0821C31.3904 26.0138 31.7058 25.8502 31.9934 25.6473C32.2941 25.4352 32.6195 25.147 32.7334 24.7533C32.7619 24.6549 32.8382 24.3466 32.7261 23.7991L32.634 23.3354L24.5567 19.184L26.7925 17.6071L32.7226 20.9626Z" fill="white"/>
<path d="M40.456 15.1779L43.3442 8.78501L46.1294 7.69201L42.8368 14.5874L50.489 18.0127L47.5548 19.1642L40.6956 15.7886L42.7589 21.0462L40.4503 21.9522L36.3588 11.5263L38.6674 10.6203L40.456 15.1779Z" fill="white"/>
<path d="M52.6347 8.44453L53.0637 11.906L55.8266 11.5636C56.7317 11.4514 57.2597 11.2892 57.6133 11.0197C57.9072 10.7898 58.3165 10.3199 58.2083 9.44656C58.1315 8.8273 57.8104 8.44792 57.38 8.22718C57.0031 8.04818 56.4455 7.97219 55.4293 8.09815L52.6347 8.44453ZM49.9374 6.84416L55.6536 6.13565C56.6381 6.01363 58.1425 5.92391 59.2591 6.60775C59.8878 6.99738 60.5737 7.71848 60.7429 9.08404C60.8866 10.2432 60.5959 11.1498 60.1527 11.7368C59.3101 12.8731 57.8611 13.1494 56.3368 13.3383L53.2881 13.7162L53.7762 17.6541L51.315 17.9591L49.9374 6.84416Z" fill="white"/>
<path d="M66.2424 10.4598L72.5908 11.2715L72.3554 13.1125L66.0071 12.3008L65.6398 15.1735L73.1785 16.1373L72.939 18.01L62.9404 16.7317L64.3608 5.62214L74.1689 6.8761L73.9295 8.74885L66.5813 7.8094L66.2424 10.4598Z" fill="white"/>
<path d="M80.5887 10.7802L77.0697 19.3671L74.7749 18.4267L79.022 8.06321L88.9266 12.1222L84.6795 22.4857L82.3847 21.5453L85.9037 12.9584L80.5887 10.7802Z" fill="white"/>
<path d="M90.1991 22.42L100.053 19.8898L102.023 21.4478L95.0766 30.2334L93.1312 28.6953L98.1921 22.2943L88.2991 24.8747L86.3286 23.3167L93.275 14.5311L95.2204 16.0693L90.1991 22.42Z" fill="white"/>
<path d="M18.0944 90.68C17.3689 89.492 16.5036 89.0269 15.8354 88.8538C14.8729 88.5979 13.7003 88.8267 12.6352 89.4772C11.5702 90.1277 10.8448 91.0582 10.633 92.0312C10.45 92.8367 10.5953 93.8728 11.2125 94.8832C11.838 95.9073 12.707 96.5014 13.4935 96.7148C14.434 96.9653 15.6066 96.7365 16.6717 96.086C17.7231 95.4439 18.4757 94.4967 18.6959 93.5373C18.8417 92.8858 18.8283 91.8816 18.0944 90.68ZM19.714 89.7095C21.1568 92.0718 20.9735 93.8898 20.8232 94.6566C20.5513 96.0225 19.7356 97.3269 18.0561 98.3527C16.1581 99.5119 14.5714 99.4311 13.5043 99.1267C12.1209 98.7342 10.6687 97.6151 9.60959 95.881C8.5421 94.1332 8.21792 92.3439 8.50043 90.9339C8.71458 89.9032 9.37484 88.3751 11.2592 87.2242C13.1708 86.0566 14.8182 86.1753 15.8193 86.4638C16.9827 86.8032 18.4881 87.7023 19.714 89.7095Z" fill="white"/>
<path d="M23.7965 99.7782L20.9351 96.9375L22.2878 95.575L29.7592 102.992L28.4065 104.355L25.5565 101.525L19.0184 108.111L17.2584 106.364L23.7965 99.7782Z" fill="white"/>
<path d="M30.0402 110.142L27.4393 114.365L25.3276 113.065L31.2006 103.528L33.3123 104.829L31.0302 108.534L36.0574 111.63L38.3395 107.924L40.4512 109.225L34.5782 118.762L32.4665 117.461L35.0674 113.238L30.0402 110.142Z" fill="white"/>
<path d="M47.1188 113.181C45.7854 112.782 44.8307 113.013 44.2178 113.331C43.3306 113.783 42.6106 114.736 42.2524 115.932C41.8941 117.127 41.9757 118.304 42.4679 119.17C42.8697 119.892 43.6698 120.566 44.804 120.906C45.9535 121.25 46.9971 121.112 47.725 120.745C48.5922 120.304 49.3122 119.35 49.6705 118.155C50.0241 116.975 49.9517 115.767 49.4748 114.906C49.1482 114.324 48.4676 113.585 47.1188 113.181ZM47.6761 111.377C50.3276 112.172 51.4054 113.647 51.8056 114.318C52.5156 115.517 52.7796 117.032 52.2147 118.917C51.5763 121.048 50.3414 122.047 49.3438 122.533C48.0521 123.165 46.2239 123.302 44.2774 122.719C42.3156 122.131 40.8793 121.016 40.1479 119.778C39.6189 118.867 39.0897 117.289 39.7235 115.174C40.3665 113.028 41.6719 112.016 42.6097 111.563C43.7022 111.038 45.4231 110.702 47.6761 111.377Z" fill="white"/>
<path d="M57.4705 123.242L62.3316 123.073L62.0104 113.83L64.4729 113.745L64.7941 122.987L69.6552 122.818L69.334 113.576L71.7965 113.49L72.1855 124.684L55.0758 125.278L54.6868 114.085L57.1494 113.999L57.4705 123.242Z" fill="white"/>
<path d="M77.432 116.208L83.4733 114.095L84.086 115.847L78.0447 117.96L79.0007 120.694L86.1747 118.185L86.7979 119.967L77.283 123.294L73.5858 112.722L82.9195 109.458L83.5427 111.24L76.55 113.686L77.432 116.208Z" fill="white"/>
<path d="M89.9512 112.683L92.6597 116.838L90.5821 118.192L84.4661 108.81L86.5437 107.455L88.9202 111.101L93.8662 107.877L91.4897 104.231L93.5673 102.877L99.6833 112.26L97.6057 113.614L94.8972 109.459L89.9512 112.683Z" fill="white"/>
<path d="M102.503 105.534L100.623 95.5363L102.306 93.672L110.619 101.179L108.956 103.019L102.9 97.55L104.828 107.591L103.144 109.455L94.832 101.948L96.4942 100.108L102.503 105.534Z" fill="white"/>
<path d="M109.236 85.1216L107.628 88.2527C107.386 88.7224 107.1 89.3848 107.287 90.0022C107.321 90.1457 107.516 90.6415 108.171 90.9778C108.612 91.2045 109.041 91.2091 109.364 91.1053C110.054 90.8838 110.55 90.0233 110.74 89.6533L112.268 86.6788L109.236 85.1216ZM113.862 87.4975L112.706 89.7462L115.069 94.2157L113.658 96.9625L111.353 91.8568C110.879 92.6388 110.084 93.3457 109.259 93.5872C108.376 93.8352 107.641 93.584 107.058 93.2842C106.389 92.9406 105.537 92.3589 105.198 91.2675C104.797 89.9465 105.37 88.586 105.977 87.4047L108.718 82.0676L118.681 87.185L117.548 89.391L113.862 87.4975Z" fill="white"/>
</svg>
