<svg width="112" height="132" viewBox="0 0 112 132" fill="none" xmlns="http://www.w3.org/2000/svg">
<path d="M10.6205 30.5778L17.794 36.4651L16.2206 38.3821L7.56298 31.2768L14.3536 23.0026L23.0113 30.1079L21.4379 32.0249L14.2645 26.1377L10.6205 30.5778Z" fill="white"/>
<path d="M22.5448 21.9897L27.734 18.2439L28.8203 19.7488L23.6311 23.4946L25.3261 25.8428L31.4883 21.3946L32.5934 22.9254L24.4203 28.8251L17.865 19.7439L25.8824 13.9566L26.9875 15.4874L20.9809 19.8232L22.5448 21.9897Z" fill="white"/>
<path d="M33.2598 12.4504L34.534 15.6974L37.1256 14.6803C37.9745 14.3472 38.4459 14.0591 38.7215 13.7103C38.9492 13.4147 39.2292 12.8579 38.9077 12.0387C38.6798 11.4579 38.2746 11.17 37.8029 11.0629C37.3934 10.983 36.8344 11.0476 35.8812 11.4217L33.2598 12.4504ZM30.2498 11.5691L35.6117 9.46492C36.5351 9.10253 37.9703 8.64247 39.2216 9.028C39.9273 9.24952 40.7706 9.77796 41.2733 11.0589C41.6999 12.1461 41.6432 13.0965 41.3595 13.7751C40.825 15.0849 39.4898 15.712 38.06 16.2731L35.2003 17.3953L36.6498 21.0891L34.3412 21.995L30.2498 11.5691Z" fill="white"/>
<path d="M46.7578 11.0895L53.1092 10.3022L53.3375 12.1441L46.9861 12.9314L47.3424 15.8054L54.8846 14.8705L55.1169 16.7442L45.1134 17.9841L43.7358 6.86914L53.5487 5.65288L53.7809 7.52654L46.4292 8.43775L46.7578 11.0895Z" fill="white"/>
<path d="M62.9596 10.2265L66.4485 6.65615L69.2894 7.01935L64.1915 11.8196L67.9484 18.1391L64.806 17.7373L62.3934 13.2673L58.8703 16.9785L55.8548 16.5929L61.1284 11.428L57.4815 5.50974L60.4811 5.89323L62.9596 10.2265Z" fill="white"/>
<path d="M78.02 11.8096C76.7379 11.2674 75.7637 11.3938 75.1199 11.6427C74.1888 11.9959 73.3693 12.8654 72.8832 14.0148C72.397 15.1642 72.3501 16.343 72.7452 17.2572C73.066 18.0183 73.7881 18.7754 74.8786 19.2366C75.9838 19.7041 77.0363 19.6802 77.7997 19.395C78.7098 19.0503 79.5293 18.1809 80.0154 17.0315C80.4953 15.8968 80.5547 14.6885 80.1744 13.7806C79.913 13.1662 79.3167 12.3581 78.02 11.8096ZM78.7702 10.077C81.3195 11.1553 82.2304 12.7393 82.5552 13.4499C83.1306 14.7183 83.2282 16.2536 82.4616 18.0661C81.5952 20.1144 80.2589 20.9737 79.2144 21.3485C77.8617 21.836 76.0294 21.7733 74.1579 20.9817C72.2717 20.1839 70.9652 18.919 70.3728 17.6088C69.9459 16.6465 69.5916 15.0199 70.4517 12.9864C71.3243 10.9233 72.732 10.0594 73.7136 9.71023C74.8567 9.30773 76.604 9.16078 78.7702 10.077Z" fill="white"/>
<path d="M93.6544 22.011L90.5129 19.4328L89.8734 20.212C89.3253 20.8799 88.2497 21.9635 87.5836 22.4725C86.7485 23.1118 85.5159 23.7561 84.4639 24.1553L88.904 27.7993L93.6544 22.011ZM90.8718 29.3108L92.356 30.5288L89.4613 33.8038L87.841 32.4741L89.3839 30.5941L81.9136 24.4633L80.3707 26.3432L78.7629 25.0237L81.4204 21.5333L82.6448 22.5382C83.6788 22.1863 84.7975 21.6555 85.6291 21.0961C86.8033 20.3211 87.5814 19.4487 88.3833 18.4716L89.9465 16.5669L96.7489 22.1496L90.8718 29.3108Z" fill="white"/>
<path d="M95.4574 32.9049L105.615 33.4584L107.025 35.5373L97.7563 41.8242L96.3642 39.7717L103.117 35.1913L92.9065 34.6737L91.4964 32.5948L100.766 26.308L102.158 28.3604L95.4574 32.9049Z" fill="white"/>
<path d="M27.6141 110.819L34.378 108.959L36.9978 110.404L29.589 112.274L31.8403 120.35L29.0803 118.828L27.2972 111.394L24.5692 116.339L22.3977 115.141L27.8074 105.335L29.9789 106.532L27.6141 110.819Z" fill="white"/>
<path d="M46.35 114.838L42.3706 114.189L42.6797 112.294L53.0704 113.989L52.7613 115.884L48.7976 115.237L47.3037 124.396L44.8561 123.997L46.35 114.838Z" fill="white"/>
<path d="M58.2613 118.377L64.6361 117.81L64.8005 119.659L58.4257 120.226L58.6822 123.11L66.2524 122.437L66.4196 124.318L56.3792 125.211L55.3871 114.055L65.2362 113.179L65.4035 115.059L58.0246 115.716L58.2613 118.377Z" fill="white"/>
<path d="M69.8898 123.722L69.2994 122.013C69.4611 121.991 69.6024 121.959 69.7839 121.896C70.1771 121.76 70.5442 121.549 70.7823 121.111C71.1543 120.424 70.9362 119.45 70.7981 118.854C70.7134 118.511 70.4756 117.577 70.0001 116.201L68.6625 112.33L77.1918 109.383L80.8492 119.969L78.5052 120.779L75.4747 112.008L71.4369 113.403L72.2102 115.641C72.5551 116.639 72.9648 118.021 73.1573 118.97C73.3394 119.889 73.4626 120.981 72.9817 121.892C72.6249 122.573 71.8976 123.163 70.8844 123.513C70.5214 123.639 70.2033 123.698 69.8898 123.722Z" fill="white"/>
<path d="M86.4197 110.983L85.4051 104.339L87.5159 103.007L88.6299 112.597C88.725 113.407 88.8265 114.497 88.5144 115.262C88.2023 116.026 87.5208 116.475 87.0472 116.774C86.276 117.261 85.8544 117.432 85.3816 117.523L84.4252 116.007C84.8303 115.96 85.1536 115.812 85.4513 115.624C85.7625 115.428 86.1022 115.157 86.2362 114.77C86.2697 114.673 86.3616 114.369 86.2778 113.816L86.2096 113.348L78.3557 108.788L80.6694 107.328L86.4197 110.983Z" fill="white"/>
</svg>
