<svg width="113" height="132" viewBox="0 0 113 132" fill="none" xmlns="http://www.w3.org/2000/svg">
<path d="M24.512 22.5278L26.38 25.282L29.0946 23.4409C30.0347 22.8032 30.3332 22.3881 30.4595 22.0898C30.5815 21.8137 30.7103 21.2624 30.2702 20.6136C29.8481 19.9912 29.266 19.9027 28.9998 19.9092C28.7691 19.9111 28.2461 19.9951 27.1735 20.7226L24.512 22.5278ZM21.9613 18.7672L23.6318 21.2301L26.2139 19.4788C26.6906 19.1555 27.1716 18.8099 27.3887 18.218C27.5666 17.7107 27.457 17.321 27.1966 16.937C27.008 16.6589 26.6903 16.3331 26.1621 16.324C25.8202 16.3045 25.3644 16.459 24.6758 16.9261L21.9613 18.7672ZM18.9748 18.7822L24.2052 15.2346C25.3043 14.4892 26.2061 14.0515 27.0047 14.0318C28.0119 14.006 28.6331 14.5513 29.0373 15.1472C29.3516 15.6107 29.6541 16.2562 29.5182 17.025C29.416 17.5583 29.0877 18.129 28.6516 18.5407L28.6786 18.5805C29.2796 18.2695 30.214 18.0224 30.9474 18.163C31.7696 18.3206 32.2664 18.8536 32.5718 19.3038C33.1376 20.138 33.224 20.9494 33.0957 21.5584C32.8392 22.7764 31.6308 23.7313 30.4788 24.5127L25.2616 28.0512L18.9748 18.7822Z" fill="white"/>
<path d="M38.1773 10.2304C36.8549 10.6651 36.2042 11.4011 35.8829 12.012C35.4137 12.8904 35.3683 14.0843 35.758 15.2699C36.1477 16.4555 36.8877 17.3744 37.7865 17.8031C38.5288 18.1654 39.5707 18.2608 40.6954 17.8911C41.8354 17.5164 42.6125 16.8062 43 16.0893C43.459 15.2311 43.5044 14.0372 43.1147 12.8516C42.73 11.6812 41.9801 10.7319 41.0964 10.2982C40.4955 10.0073 39.5148 9.79069 38.1773 10.2304ZM37.6029 8.4318C40.2325 7.56742 41.9604 8.16154 42.6725 8.48326C43.9401 9.06028 45.0233 10.1526 45.6379 12.0222C46.3324 14.135 45.8909 15.6612 45.3506 16.6304C44.6521 17.8873 43.2306 19.0452 41.3002 19.6797C39.3546 20.3192 37.5386 20.2257 36.2306 19.6282C35.2762 19.1841 33.9395 18.1919 33.25 16.0943C32.5505 13.9663 33.0428 12.3897 33.5526 11.4811C34.1489 10.4261 35.3685 9.16627 37.6029 8.4318Z" fill="white"/>
<path d="M55.4573 2.79989L57.2167 2.75235C57.2314 3.29615 57.0382 3.84557 56.6016 4.27352C55.8529 4.99801 54.623 5.09527 53.8233 5.11688C53.0236 5.13849 51.7903 5.1078 51.0036 4.4248C50.5445 4.02106 50.3219 3.48287 50.3072 2.93907L52.0666 2.89153C52.0787 3.33936 52.3104 3.62121 52.5386 3.7751C52.9298 4.03662 53.4101 4.03965 53.7939 4.02928C54.1778 4.0189 54.6572 3.98994 55.0337 3.70767C55.2533 3.54167 55.4694 3.24773 55.4573 2.79989ZM50.9906 14.0127L56.9296 5.75319L59.4407 5.68533L59.7433 16.8812L57.2642 16.9482L57.0438 8.79122L51.1065 17.1147L48.5954 17.1825L48.2928 5.9866L50.7719 5.91961L50.9906 14.0127Z" fill="white"/>
<path d="M72.7352 10.0588L68.8127 8.99587L68.5491 9.96878C68.3231 10.8027 67.7865 12.2321 67.3878 12.9695C66.8883 13.8951 66.0284 14.9882 65.2326 15.7838L70.7767 17.2862L72.7352 10.0588ZM73.1913 17.8576L75.0444 18.3598L73.7475 22.5339L71.7245 21.9857L72.3606 19.6383L63.033 17.1106L62.3969 19.458L60.3893 18.9139L61.3816 14.6407L62.9104 15.055C63.7091 14.31 64.5117 13.3671 65.0407 12.5158C65.7938 11.3274 66.1456 10.2126 66.4762 8.99262L67.1207 6.6144L75.6144 8.91613L73.1913 17.8576Z" fill="white"/>
<path d="M79.0639 19.3518L88.5543 15.6883L90.6933 17.0055L84.8204 26.5422L82.7087 25.2418L86.9875 18.2936L77.4635 22.0117L75.3245 20.6944L81.1975 11.1577L83.3092 12.4582L79.0639 19.3518Z" fill="white"/>
<path d="M15.8432 102.982L22.1684 100.71L23.8813 102.526L14.6846 105.461C13.9077 105.71 12.8574 106.019 12.0471 105.86C11.2368 105.701 10.6652 105.118 10.2809 104.711C9.65499 104.047 9.40574 103.667 9.22631 103.22L10.5297 101.99C10.6543 102.379 10.8609 102.668 11.1025 102.924C11.355 103.191 11.6864 103.473 12.0922 103.53C12.1937 103.544 12.5096 103.576 13.0358 103.387L13.4818 103.23L16.4478 94.6468L18.3254 96.6368L15.8432 102.982Z" fill="white"/>
<path d="M22.6968 109.129L20.8591 111.903L23.5937 113.714C24.5408 114.342 25.0382 114.46 25.3621 114.464C25.6639 114.472 26.2228 114.381 26.6557 113.727C27.071 113.101 26.9317 112.528 26.8244 112.285C26.735 112.072 26.4585 111.62 25.3781 110.905L22.6968 109.129ZM25.206 105.34L23.5627 107.821L26.1639 109.544C26.6441 109.862 27.1465 110.176 27.7765 110.152C28.3134 110.124 28.6322 109.874 28.8884 109.487C29.0739 109.207 29.2546 108.789 29.0623 108.297C28.9504 107.974 28.6342 107.611 27.9406 107.151L25.206 105.34ZM24.0572 102.584L29.3263 106.073C30.4335 106.807 31.181 107.475 31.5027 108.206C31.9093 109.128 31.641 109.909 31.2434 110.51C30.9342 110.977 30.4521 111.502 29.6893 111.668C29.1571 111.776 28.5045 111.689 27.9579 111.443L27.9314 111.483C28.4475 111.92 29.0312 112.691 29.1798 113.423C29.3465 114.243 29.0422 114.905 28.7419 115.359C28.1852 116.199 27.4675 116.587 26.8555 116.7C25.6314 116.926 24.2889 116.171 23.1284 115.402L17.8727 111.921L24.0572 102.584Z" fill="white"/>
<path d="M35.1327 114.284L41.1579 116.442L40.532 118.19L34.5069 116.031L33.5303 118.758L40.6852 121.321L40.0486 123.098L30.559 119.699L34.3356 109.155L43.6445 112.489L43.0079 114.267L36.0337 111.769L35.1327 114.284Z" fill="white"/>
<path d="M48.0223 115.163L47.6465 118.631L50.4143 118.931C51.321 119.029 51.8722 118.992 52.2781 118.811C52.6169 118.654 53.123 118.291 53.2178 117.416C53.2851 116.796 53.0595 116.353 52.6911 116.039C52.3653 115.779 51.84 115.577 50.8219 115.467L48.0223 115.163ZM45.7636 112.987L51.4901 113.608C52.4763 113.715 53.9612 113.972 54.8913 114.894C55.414 115.417 55.9164 116.276 55.7681 117.644C55.6423 118.805 55.1515 119.621 54.5856 120.091C53.505 121.004 52.0312 120.941 50.5042 120.775L47.45 120.444L47.0226 124.389L44.557 124.122L45.7636 112.987Z" fill="white"/>
<path d="M60.0939 118.275L66.4453 117.487L66.6736 119.329L60.3222 120.117L60.6784 122.991L68.2207 122.056L68.4529 123.929L58.4495 125.169L57.0718 114.054L66.8848 112.838L67.117 114.712L59.7652 115.623L60.0939 118.275Z" fill="white"/>
<path d="M73.21 117.437L74.9873 122.068L72.672 122.956L68.6588 112.5L70.9741 111.611L72.5335 115.674L78.0455 113.559L76.4861 109.496L78.8014 108.607L82.8146 119.063L80.4993 119.952L78.722 115.321L73.21 117.437Z" fill="white"/>
<path d="M85.9739 111.455L88.8475 115.497L86.8261 116.934L80.3374 107.805L82.3588 106.368L84.8801 109.916L89.6923 106.495L87.171 102.948L89.1924 101.511L95.6811 110.64L93.6597 112.077L90.7861 108.034L85.9739 111.455Z" fill="white"/>
<path d="M95.4695 96.8782C94.5786 97.9478 94.417 98.9168 94.4684 99.6051C94.5362 100.599 95.1305 101.635 96.0895 102.434C97.0484 103.233 98.1629 103.62 99.1523 103.507C99.9738 103.42 100.908 102.949 101.666 102.039C102.434 101.117 102.716 100.103 102.665 99.2898C102.599 98.3188 102.005 97.2824 101.046 96.4836C100.099 95.6951 98.96 95.2877 97.9808 95.3883C97.317 95.4602 96.3707 95.7964 95.4695 96.8782ZM94.0291 95.6576C95.8007 93.5307 97.5808 93.1186 98.3551 93.0139C99.7358 92.8313 101.233 93.1833 102.746 94.4429C104.454 95.8662 104.889 97.3944 104.945 98.5027C105.019 99.9387 104.427 101.674 103.127 103.235C101.816 104.809 100.226 105.692 98.8005 105.879C97.7558 106.008 96.0964 105.875 94.3998 104.462C92.6787 103.029 92.2604 101.431 92.211 100.39C92.1575 99.1795 92.5238 97.4648 94.0291 95.6576Z" fill="white"/>
</svg>
