<svg width="166" height="145" viewBox="0 0 166 145" fill="none" xmlns="http://www.w3.org/2000/svg">
<path d="M59.6877 23.4717C54.2996 20.8542 48.2498 19.386 41.8571 19.386C19.2924 19.386 1 37.6783 1 60.2431C1 82.8079 19.2924 101.1 41.8571 101.1C64.4219 101.1 82.7142 82.8079 82.7142 60.2431C82.7142 57.4447 82.4329 54.7119 81.8969 52.0717" stroke="white" stroke-linecap="round"/>
<path d="M59.4874 70.4574C58.6471 67.1927 58.2002 63.7701 58.2002 60.2431C58.2002 37.6783 76.4925 19.386 99.0573 19.386C121.622 19.386 139.914 37.6783 139.914 60.2431C139.914 82.8079 121.622 101.1 99.0573 101.1C92.4441 101.1 86.1979 99.529 80.6716 96.7396" stroke="white" stroke-linecap="round"/>
<path d="M41.8574 101.1L41.8574 144" stroke="white" stroke-linecap="round"/>
<path d="M23.4717 121.529L60.2431 121.529" stroke="white" stroke-linecap="round"/>
<path d="M164.929 0.984855C164.92 0.70884 164.69 0.491865 164.414 0.500229L159.916 0.63653C159.64 0.644894 159.423 0.87543 159.431 1.15145C159.44 1.42746 159.67 1.64444 159.946 1.63607L163.944 1.51492L164.065 5.51308C164.074 5.7891 164.304 6.00607 164.58 5.99771C164.856 5.98934 165.073 5.75881 165.065 5.48279L164.929 0.984855ZM132.107 36.0712L164.793 1.34268L164.065 0.657318L131.379 35.3859L132.107 36.0712Z" fill="white"/>
</svg>
