<svg width="326" height="105" viewBox="0 0 326 105" fill="none" xmlns="http://www.w3.org/2000/svg">
<mask id="path-1-outside-1_118_4" maskUnits="userSpaceOnUse" x="0.400391" y="0.757568" width="325" height="104" fill="black">
<rect fill="white" x="0.400391" y="0.757568" width="325" height="104"/>
<path d="M17.8769 1.75757C8.05595 1.75757 2.04977 6.70403 2.04977 15.2184L2.04971 26.0985H9.92267L9.92273 15.2184C9.92273 10.6774 12.9258 8.08256 17.8769 8.08256H18.6885C23.6395 8.08256 26.4803 10.6774 26.4803 15.2184L26.4802 34.1891C26.4802 38.8112 23.6395 41.4872 18.2826 41.4872H13.5751V47.9743H18.2826C23.3148 47.9743 27.373 49.9205 27.373 55.2724V79.0788C27.373 83.8631 24.6946 86.7012 18.7696 86.7012H17.958C12.0329 86.7012 9.35452 84.0253 9.35452 78.9166V72.3917H1.40039L1.40039 78.7545C1.40039 88.323 7.81239 93.0262 17.958 93.0262H18.7696C28.9963 93.0262 35.246 88.2419 35.246 79.5654V55.4346C35.246 49.8394 32.5676 46.6769 28.834 44.974V43.3522C32.6487 41.2439 34.3532 37.757 34.3532 33.216L34.3533 14.0832C34.3533 6.70403 28.5094 1.75757 18.6885 1.75757H17.8769Z"/>
<path d="M53.4517 9.05563H68.7918L68.7917 85.7282H50.0427C52.153 80.5384 53.4517 35.4908 53.4517 17.4079V9.05563ZM46.1469 2.40629V17.4079C46.1469 34.4367 44.767 80.5384 42.4132 85.7282H38.5985V103.73H46.1468V92.3775H75.0414V103.73H82.5897V85.7282H76.6647L76.6647 2.40629H46.1469Z"/>
<path d="M104.071 1.75757C93.195 1.75757 87.1889 8.32582 87.1889 18.9486L87.1888 75.9974C87.1888 86.5391 93.195 93.0262 104.071 93.0262H104.883C115.84 93.0262 121.765 86.5391 121.765 75.9974L121.765 18.9486C121.765 8.32582 115.84 1.75757 104.883 1.75757H104.071ZM104.071 8.89345H104.883C111.295 8.89345 113.811 13.1101 113.811 19.4351L113.811 75.2676C113.811 81.6737 111.295 85.8904 104.883 85.8904H104.071C97.4967 85.8904 95.0618 81.6737 95.0618 75.2676L95.0618 19.4351C95.0618 13.1101 97.4968 8.89345 104.071 8.89345Z"/>
<path d="M130.885 2.40629L130.885 92.3775H138.839V56.2084H146.063C157.994 56.2084 162.377 50.6943 162.377 42.5043L162.377 16.1915C162.377 7.59602 158.238 2.40629 146.063 2.40629H130.885ZM138.839 9.05563H145.657C152.069 9.05563 154.423 11.6505 154.423 16.5159L154.423 42.261C154.423 46.5588 151.988 49.5591 145.657 49.5591H138.839L138.839 9.05563Z"/>
<path d="M187.138 1.75757C176.262 1.75757 170.256 8.32582 170.256 18.9486L170.256 75.9974C170.256 86.5391 176.262 93.0262 187.138 93.0262H187.95C198.907 93.0262 204.832 86.5391 204.832 75.9974L204.832 18.9486C204.832 8.32582 198.907 1.75757 187.95 1.75757H187.138ZM187.138 8.89345H187.95C194.362 8.89345 196.878 13.1101 196.878 19.4351L196.878 75.2676C196.878 81.6737 194.362 85.8904 187.95 85.8904H187.138C180.564 85.8904 178.129 81.6737 178.129 75.2676L178.129 19.4351C178.129 13.1101 180.564 8.89345 187.138 8.89345Z"/>
<path d="M213.952 2.40629L213.952 92.3775H231.565C242.035 92.3775 246.174 87.0256 246.174 79.0788V55.2724C246.174 49.4339 243.415 46.5147 239.762 44.7308L239.762 40.3878C243.334 38.2795 245.119 35.198 245.119 30.9003V14.2454C245.119 6.37968 240.331 2.40629 230.023 2.40629H213.952ZM221.663 8.488H229.049C235.217 8.488 237.327 11.0829 237.327 15.2184V31.8734C237.327 36.4144 234.487 38.9282 229.536 38.9282H221.663V8.488ZM221.663 47.1634H230.104C234.649 47.1634 238.464 49.1907 238.464 54.7048V78.2679C238.464 82.9711 236.678 86.2958 230.672 86.2958H221.663V47.1634Z"/>
<path d="M255.01 2.40629L255.01 92.3775H269.782C281.794 92.3775 286.502 87.35 286.502 77.7003L286.502 55.2724C286.502 46.3525 281.875 41.1628 269.782 41.1628H262.964V2.40629H255.01ZM262.964 47.8121H269.782C276.275 47.8121 278.548 50.5692 278.548 55.9211L278.548 77.3759C278.548 83.2144 276.275 85.7282 269.782 85.7282H262.964L262.964 47.8121Z"/>
<path d="M294.958 2.40629L294.958 92.3775H324.177V85.7282H302.912V47.65H321.174V41.1628H302.912L302.912 9.05563H323.69V2.40629H294.958Z"/>
</mask>
<path d="M17.8769 1.75757C8.05595 1.75757 2.04977 6.70403 2.04977 15.2184L2.04971 26.0985H9.92267L9.92273 15.2184C9.92273 10.6774 12.9258 8.08256 17.8769 8.08256H18.6885C23.6395 8.08256 26.4803 10.6774 26.4803 15.2184L26.4802 34.1891C26.4802 38.8112 23.6395 41.4872 18.2826 41.4872H13.5751V47.9743H18.2826C23.3148 47.9743 27.373 49.9205 27.373 55.2724V79.0788C27.373 83.8631 24.6946 86.7012 18.7696 86.7012H17.958C12.0329 86.7012 9.35452 84.0253 9.35452 78.9166V72.3917H1.40039L1.40039 78.7545C1.40039 88.323 7.81239 93.0262 17.958 93.0262H18.7696C28.9963 93.0262 35.246 88.2419 35.246 79.5654V55.4346C35.246 49.8394 32.5676 46.6769 28.834 44.974V43.3522C32.6487 41.2439 34.3532 37.757 34.3532 33.216L34.3533 14.0832C34.3533 6.70403 28.5094 1.75757 18.6885 1.75757H17.8769Z" fill="white"/>
<path d="M53.4517 9.05563H68.7918L68.7917 85.7282H50.0427C52.153 80.5384 53.4517 35.4908 53.4517 17.4079V9.05563ZM46.1469 2.40629V17.4079C46.1469 34.4367 44.767 80.5384 42.4132 85.7282H38.5985V103.73H46.1468V92.3775H75.0414V103.73H82.5897V85.7282H76.6647L76.6647 2.40629H46.1469Z" fill="white"/>
<path d="M104.071 1.75757C93.195 1.75757 87.1889 8.32582 87.1889 18.9486L87.1888 75.9974C87.1888 86.5391 93.195 93.0262 104.071 93.0262H104.883C115.84 93.0262 121.765 86.5391 121.765 75.9974L121.765 18.9486C121.765 8.32582 115.84 1.75757 104.883 1.75757H104.071ZM104.071 8.89345H104.883C111.295 8.89345 113.811 13.1101 113.811 19.4351L113.811 75.2676C113.811 81.6737 111.295 85.8904 104.883 85.8904H104.071C97.4967 85.8904 95.0618 81.6737 95.0618 75.2676L95.0618 19.4351C95.0618 13.1101 97.4968 8.89345 104.071 8.89345Z" fill="white"/>
<path d="M130.885 2.40629L130.885 92.3775H138.839V56.2084H146.063C157.994 56.2084 162.377 50.6943 162.377 42.5043L162.377 16.1915C162.377 7.59602 158.238 2.40629 146.063 2.40629H130.885ZM138.839 9.05563H145.657C152.069 9.05563 154.423 11.6505 154.423 16.5159L154.423 42.261C154.423 46.5588 151.988 49.5591 145.657 49.5591H138.839L138.839 9.05563Z" fill="white"/>
<path d="M187.138 1.75757C176.262 1.75757 170.256 8.32582 170.256 18.9486L170.256 75.9974C170.256 86.5391 176.262 93.0262 187.138 93.0262H187.95C198.907 93.0262 204.832 86.5391 204.832 75.9974L204.832 18.9486C204.832 8.32582 198.907 1.75757 187.95 1.75757H187.138ZM187.138 8.89345H187.95C194.362 8.89345 196.878 13.1101 196.878 19.4351L196.878 75.2676C196.878 81.6737 194.362 85.8904 187.95 85.8904H187.138C180.564 85.8904 178.129 81.6737 178.129 75.2676L178.129 19.4351C178.129 13.1101 180.564 8.89345 187.138 8.89345Z" fill="white"/>
<path d="M213.952 2.40629L213.952 92.3775H231.565C242.035 92.3775 246.174 87.0256 246.174 79.0788V55.2724C246.174 49.4339 243.415 46.5147 239.762 44.7308L239.762 40.3878C243.334 38.2795 245.119 35.198 245.119 30.9003V14.2454C245.119 6.37968 240.331 2.40629 230.023 2.40629H213.952ZM221.663 8.488H229.049C235.217 8.488 237.327 11.0829 237.327 15.2184V31.8734C237.327 36.4144 234.487 38.9282 229.536 38.9282H221.663V8.488ZM221.663 47.1634H230.104C234.649 47.1634 238.464 49.1907 238.464 54.7048V78.2679C238.464 82.9711 236.678 86.2958 230.672 86.2958H221.663V47.1634Z" fill="white"/>
<path d="M255.01 2.40629L255.01 92.3775H269.782C281.794 92.3775 286.502 87.35 286.502 77.7003L286.502 55.2724C286.502 46.3525 281.875 41.1628 269.782 41.1628H262.964V2.40629H255.01ZM262.964 47.8121H269.782C276.275 47.8121 278.548 50.5692 278.548 55.9211L278.548 77.3759C278.548 83.2144 276.275 85.7282 269.782 85.7282H262.964L262.964 47.8121Z" fill="white"/>
<path d="M294.958 2.40629L294.958 92.3775H324.177V85.7282H302.912V47.65H321.174V41.1628H302.912L302.912 9.05563H323.69V2.40629H294.958Z" fill="white"/>
<path d="M17.8769 1.75757C8.05595 1.75757 2.04977 6.70403 2.04977 15.2184L2.04971 26.0985H9.92267L9.92273 15.2184C9.92273 10.6774 12.9258 8.08256 17.8769 8.08256H18.6885C23.6395 8.08256 26.4803 10.6774 26.4803 15.2184L26.4802 34.1891C26.4802 38.8112 23.6395 41.4872 18.2826 41.4872H13.5751V47.9743H18.2826C23.3148 47.9743 27.373 49.9205 27.373 55.2724V79.0788C27.373 83.8631 24.6946 86.7012 18.7696 86.7012H17.958C12.0329 86.7012 9.35452 84.0253 9.35452 78.9166V72.3917H1.40039L1.40039 78.7545C1.40039 88.323 7.81239 93.0262 17.958 93.0262H18.7696C28.9963 93.0262 35.246 88.2419 35.246 79.5654V55.4346C35.246 49.8394 32.5676 46.6769 28.834 44.974V43.3522C32.6487 41.2439 34.3532 37.757 34.3532 33.216L34.3533 14.0832C34.3533 6.70403 28.5094 1.75757 18.6885 1.75757H17.8769Z" stroke="white" stroke-width="2" mask="url(#path-1-outside-1_118_4)"/>
<path d="M53.4517 9.05563H68.7918L68.7917 85.7282H50.0427C52.153 80.5384 53.4517 35.4908 53.4517 17.4079V9.05563ZM46.1469 2.40629V17.4079C46.1469 34.4367 44.767 80.5384 42.4132 85.7282H38.5985V103.73H46.1468V92.3775H75.0414V103.73H82.5897V85.7282H76.6647L76.6647 2.40629H46.1469Z" stroke="white" stroke-width="2" mask="url(#path-1-outside-1_118_4)"/>
<path d="M104.071 1.75757C93.195 1.75757 87.1889 8.32582 87.1889 18.9486L87.1888 75.9974C87.1888 86.5391 93.195 93.0262 104.071 93.0262H104.883C115.84 93.0262 121.765 86.5391 121.765 75.9974L121.765 18.9486C121.765 8.32582 115.84 1.75757 104.883 1.75757H104.071ZM104.071 8.89345H104.883C111.295 8.89345 113.811 13.1101 113.811 19.4351L113.811 75.2676C113.811 81.6737 111.295 85.8904 104.883 85.8904H104.071C97.4967 85.8904 95.0618 81.6737 95.0618 75.2676L95.0618 19.4351C95.0618 13.1101 97.4968 8.89345 104.071 8.89345Z" stroke="white" stroke-width="2" mask="url(#path-1-outside-1_118_4)"/>
<path d="M130.885 2.40629L130.885 92.3775H138.839V56.2084H146.063C157.994 56.2084 162.377 50.6943 162.377 42.5043L162.377 16.1915C162.377 7.59602 158.238 2.40629 146.063 2.40629H130.885ZM138.839 9.05563H145.657C152.069 9.05563 154.423 11.6505 154.423 16.5159L154.423 42.261C154.423 46.5588 151.988 49.5591 145.657 49.5591H138.839L138.839 9.05563Z" stroke="white" stroke-width="2" mask="url(#path-1-outside-1_118_4)"/>
<path d="M187.138 1.75757C176.262 1.75757 170.256 8.32582 170.256 18.9486L170.256 75.9974C170.256 86.5391 176.262 93.0262 187.138 93.0262H187.95C198.907 93.0262 204.832 86.5391 204.832 75.9974L204.832 18.9486C204.832 8.32582 198.907 1.75757 187.95 1.75757H187.138ZM187.138 8.89345H187.95C194.362 8.89345 196.878 13.1101 196.878 19.4351L196.878 75.2676C196.878 81.6737 194.362 85.8904 187.95 85.8904H187.138C180.564 85.8904 178.129 81.6737 178.129 75.2676L178.129 19.4351C178.129 13.1101 180.564 8.89345 187.138 8.89345Z" stroke="white" stroke-width="2" mask="url(#path-1-outside-1_118_4)"/>
<path d="M213.952 2.40629L213.952 92.3775H231.565C242.035 92.3775 246.174 87.0256 246.174 79.0788V55.2724C246.174 49.4339 243.415 46.5147 239.762 44.7308L239.762 40.3878C243.334 38.2795 245.119 35.198 245.119 30.9003V14.2454C245.119 6.37968 240.331 2.40629 230.023 2.40629H213.952ZM221.663 8.488H229.049C235.217 8.488 237.327 11.0829 237.327 15.2184V31.8734C237.327 36.4144 234.487 38.9282 229.536 38.9282H221.663V8.488ZM221.663 47.1634H230.104C234.649 47.1634 238.464 49.1907 238.464 54.7048V78.2679C238.464 82.9711 236.678 86.2958 230.672 86.2958H221.663V47.1634Z" stroke="white" stroke-width="2" mask="url(#path-1-outside-1_118_4)"/>
<path d="M255.01 2.40629L255.01 92.3775H269.782C281.794 92.3775 286.502 87.35 286.502 77.7003L286.502 55.2724C286.502 46.3525 281.875 41.1628 269.782 41.1628H262.964V2.40629H255.01ZM262.964 47.8121H269.782C276.275 47.8121 278.548 50.5692 278.548 55.9211L278.548 77.3759C278.548 83.2144 276.275 85.7282 269.782 85.7282H262.964L262.964 47.8121Z" stroke="white" stroke-width="2" mask="url(#path-1-outside-1_118_4)"/>
<path d="M294.958 2.40629L294.958 92.3775H324.177V85.7282H302.912V47.65H321.174V41.1628H302.912L302.912 9.05563H323.69V2.40629H294.958Z" stroke="white" stroke-width="2" mask="url(#path-1-outside-1_118_4)"/>
</svg>
