<svg width="325" height="104" viewBox="0 0 325 104" fill="none" xmlns="http://www.w3.org/2000/svg">
<path d="M17.8769 0.757568C8.05595 0.757568 2.04977 5.70403 2.04977 14.2184L2.04971 25.0985H9.92267L9.92273 14.2184C9.92273 9.67742 12.9258 7.08256 17.8769 7.08256H18.6885C23.6395 7.08256 26.4803 9.67742 26.4803 14.2184L26.4802 33.1891C26.4802 37.8112 23.6395 40.4872 18.2826 40.4872H13.5751V46.9743H18.2826C23.3148 46.9743 27.373 48.9205 27.373 54.2724V78.0788C27.373 82.8631 24.6946 85.7012 18.7696 85.7012H17.958C12.0329 85.7012 9.35452 83.0253 9.35452 77.9166V71.3917H1.40039L1.40039 77.7545C1.40039 87.323 7.81239 92.0262 17.958 92.0262H18.7696C28.9963 92.0262 35.246 87.2419 35.246 78.5654V54.4346C35.246 48.8394 32.5676 45.6769 28.834 43.974V42.3522C32.6487 40.2439 34.3532 36.757 34.3532 32.216L34.3533 13.0832C34.3533 5.70403 28.5094 0.757568 18.6885 0.757568H17.8769Z" fill="white"/>
<path d="M53.4517 8.05563H68.7918L68.7917 84.7282H50.0427C52.153 79.5384 53.4517 34.4908 53.4517 16.4079V8.05563ZM46.1469 1.40629V16.4079C46.1469 33.4367 44.767 79.5384 42.4132 84.7282H38.5985V102.73H46.1468V91.3775H75.0414V102.73H82.5897V84.7282H76.6647L76.6647 1.40629H46.1469Z" fill="white"/>
<path d="M104.071 0.757568C93.195 0.757568 87.1889 7.32582 87.1889 17.9486L87.1888 74.9974C87.1888 85.5391 93.195 92.0262 104.071 92.0262H104.883C115.84 92.0262 121.765 85.5391 121.765 74.9974L121.765 17.9486C121.765 7.32582 115.84 0.757568 104.883 0.757568H104.071ZM104.071 7.89345H104.883C111.295 7.89345 113.811 12.1101 113.811 18.4351L113.811 74.2676C113.811 80.6737 111.295 84.8904 104.883 84.8904H104.071C97.4967 84.8904 95.0618 80.6737 95.0618 74.2676L95.0618 18.4351C95.0618 12.1101 97.4968 7.89345 104.071 7.89345Z" fill="white"/>
<path d="M130.885 1.40629L130.885 91.3775H138.839V55.2084H146.063C157.994 55.2084 162.377 49.6943 162.377 41.5043L162.377 15.1915C162.377 6.59602 158.238 1.40629 146.063 1.40629H130.885ZM138.839 8.05563H145.657C152.069 8.05563 154.423 10.6505 154.423 15.5159L154.423 41.261C154.423 45.5588 151.988 48.5591 145.657 48.5591H138.839L138.839 8.05563Z" fill="white"/>
<path d="M187.138 0.757568C176.262 0.757568 170.256 7.32582 170.256 17.9486L170.256 74.9974C170.256 85.5391 176.262 92.0262 187.138 92.0262H187.95C198.907 92.0262 204.832 85.5391 204.832 74.9974L204.832 17.9486C204.832 7.32582 198.907 0.757568 187.95 0.757568H187.138ZM187.138 7.89345H187.95C194.362 7.89345 196.878 12.1101 196.878 18.4351L196.878 74.2676C196.878 80.6737 194.362 84.8904 187.95 84.8904H187.138C180.564 84.8904 178.129 80.6737 178.129 74.2676L178.129 18.4351C178.129 12.1101 180.564 7.89345 187.138 7.89345Z" fill="white"/>
<path d="M213.952 1.40629L213.952 91.3775H231.565C242.035 91.3775 246.174 86.0256 246.174 78.0788V54.2724C246.174 48.4339 243.415 45.5147 239.762 43.7308L239.762 39.3878C243.334 37.2795 245.119 34.198 245.119 29.9003V13.2454C245.119 5.37968 240.331 1.40629 230.023 1.40629H213.952ZM221.663 7.488H229.049C235.217 7.488 237.327 10.0829 237.327 14.2184V30.8734C237.327 35.4144 234.487 37.9282 229.536 37.9282H221.663V7.488ZM221.663 46.1634H230.104C234.649 46.1634 238.464 48.1907 238.464 53.7048V77.2679C238.464 81.9711 236.678 85.2958 230.672 85.2958H221.663V46.1634Z" fill="white"/>
<path d="M255.01 1.40629L255.01 91.3775H269.782C281.794 91.3775 286.502 86.35 286.502 76.7003L286.502 54.2724C286.502 45.3525 281.875 40.1628 269.782 40.1628H262.964V1.40629H255.01ZM262.964 46.8121H269.782C276.275 46.8121 278.548 49.5692 278.548 54.9211L278.548 76.3759C278.548 82.2144 276.275 84.7282 269.782 84.7282H262.964L262.964 46.8121Z" fill="white"/>
<path d="M294.958 1.40629L294.958 91.3775H324.177V84.7282H302.912V46.65H321.174V40.1628H302.912L302.912 8.05563H323.69V1.40629H294.958Z" fill="white"/>
<path d="M17.8769 0.757568C8.05595 0.757568 2.04977 5.70403 2.04977 14.2184L2.04971 25.0985H9.92267L9.92273 14.2184C9.92273 9.67742 12.9258 7.08256 17.8769 7.08256H18.6885C23.6395 7.08256 26.4803 9.67742 26.4803 14.2184L26.4802 33.1891C26.4802 37.8112 23.6395 40.4872 18.2826 40.4872H13.5751V46.9743H18.2826C23.3148 46.9743 27.373 48.9205 27.373 54.2724V78.0788C27.373 82.8631 24.6946 85.7012 18.7696 85.7012H17.958C12.0329 85.7012 9.35452 83.0253 9.35452 77.9166V71.3917H1.40039L1.40039 77.7545C1.40039 87.323 7.81239 92.0262 17.958 92.0262H18.7696C28.9963 92.0262 35.246 87.2419 35.246 78.5654V54.4346C35.246 48.8394 32.5676 45.6769 28.834 43.974V42.3522C32.6487 40.2439 34.3532 36.757 34.3532 32.216L34.3533 13.0832C34.3533 5.70403 28.5094 0.757568 18.6885 0.757568H17.8769Z" stroke="white"/>
<path d="M53.4517 8.05563H68.7918L68.7917 84.7282H50.0427C52.153 79.5384 53.4517 34.4908 53.4517 16.4079V8.05563ZM46.1469 1.40629V16.4079C46.1469 33.4367 44.767 79.5384 42.4132 84.7282H38.5985V102.73H46.1468V91.3775H75.0414V102.73H82.5897V84.7282H76.6647L76.6647 1.40629H46.1469Z" stroke="white"/>
<path d="M104.071 0.757568C93.195 0.757568 87.1889 7.32582 87.1889 17.9486L87.1888 74.9974C87.1888 85.5391 93.195 92.0262 104.071 92.0262H104.883C115.84 92.0262 121.765 85.5391 121.765 74.9974L121.765 17.9486C121.765 7.32582 115.84 0.757568 104.883 0.757568H104.071ZM104.071 7.89345H104.883C111.295 7.89345 113.811 12.1101 113.811 18.4351L113.811 74.2676C113.811 80.6737 111.295 84.8904 104.883 84.8904H104.071C97.4967 84.8904 95.0618 80.6737 95.0618 74.2676L95.0618 18.4351C95.0618 12.1101 97.4968 7.89345 104.071 7.89345Z" stroke="white"/>
<path d="M130.885 1.40629L130.885 91.3775H138.839V55.2084H146.063C157.994 55.2084 162.377 49.6943 162.377 41.5043L162.377 15.1915C162.377 6.59602 158.238 1.40629 146.063 1.40629H130.885ZM138.839 8.05563H145.657C152.069 8.05563 154.423 10.6505 154.423 15.5159L154.423 41.261C154.423 45.5588 151.988 48.5591 145.657 48.5591H138.839L138.839 8.05563Z" stroke="white"/>
<path d="M187.138 0.757568C176.262 0.757568 170.256 7.32582 170.256 17.9486L170.256 74.9974C170.256 85.5391 176.262 92.0262 187.138 92.0262H187.95C198.907 92.0262 204.832 85.5391 204.832 74.9974L204.832 17.9486C204.832 7.32582 198.907 0.757568 187.95 0.757568H187.138ZM187.138 7.89345H187.95C194.362 7.89345 196.878 12.1101 196.878 18.4351L196.878 74.2676C196.878 80.6737 194.362 84.8904 187.95 84.8904H187.138C180.564 84.8904 178.129 80.6737 178.129 74.2676L178.129 18.4351C178.129 12.1101 180.564 7.89345 187.138 7.89345Z" stroke="white"/>
<path d="M213.952 1.40629L213.952 91.3775H231.565C242.035 91.3775 246.174 86.0256 246.174 78.0788V54.2724C246.174 48.4339 243.415 45.5147 239.762 43.7308L239.762 39.3878C243.334 37.2795 245.119 34.198 245.119 29.9003V13.2454C245.119 5.37968 240.331 1.40629 230.023 1.40629H213.952ZM221.663 7.488H229.049C235.217 7.488 237.327 10.0829 237.327 14.2184V30.8734C237.327 35.4144 234.487 37.9282 229.536 37.9282H221.663V7.488ZM221.663 46.1634H230.104C234.649 46.1634 238.464 48.1907 238.464 53.7048V77.2679C238.464 81.9711 236.678 85.2958 230.672 85.2958H221.663V46.1634Z" stroke="white"/>
<path d="M255.01 1.40629L255.01 91.3775H269.782C281.794 91.3775 286.502 86.35 286.502 76.7003L286.502 54.2724C286.502 45.3525 281.875 40.1628 269.782 40.1628H262.964V1.40629H255.01ZM262.964 46.8121H269.782C276.275 46.8121 278.548 49.5692 278.548 54.9211L278.548 76.3759C278.548 82.2144 276.275 84.7282 269.782 84.7282H262.964L262.964 46.8121Z" stroke="white"/>
<path d="M294.958 1.40629L294.958 91.3775H324.177V84.7282H302.912V46.65H321.174V40.1628H302.912L302.912 8.05563H323.69V1.40629H294.958Z" stroke="white"/>
</svg>
