<svg width="1051" height="256" viewBox="0 0 1051 256" fill="none" xmlns="http://www.w3.org/2000/svg">
<path d="M53.6493 0C21.6713 0 2.11446 16.0579 2.11446 43.6985L2.11425 79.0188H27.7496L27.7498 43.6985C27.7498 28.9569 37.5282 20.5331 53.6493 20.5331H56.2922C72.4133 20.5331 81.6632 28.9569 81.6632 43.6985L81.663 73.6415C81.663 88.6465 72.4131 97.3335 54.9706 97.3335H39.6422V118.393H54.9706C71.356 118.393 84.5701 124.711 84.5701 142.085V175.974C84.5701 191.505 75.8488 200.719 56.5562 200.719H53.9134C34.6209 200.719 25.8996 192.032 25.8996 175.447V154.265H0L0 174.921C0 205.984 20.8782 221.252 53.9134 221.252H56.5562C89.8557 221.252 110.205 205.72 110.205 177.553V142.612C110.205 124.448 101.484 114.181 89.3271 108.653V103.388C101.748 96.5438 107.298 85.2243 107.298 70.4826L107.299 40.0131C107.299 16.0579 88.2702 0 56.2922 0H53.6493Z" fill="#FF5D02"/>
<path d="M169.485 23.692H219.434L219.434 197.56H158.385C165.256 180.712 169.485 109.51 169.485 50.8062V23.692ZM145.7 2.10596V50.8062C145.7 106.087 141.207 180.712 133.543 197.56H121.121V256H145.7V219.146H239.784V256H264.362V197.56H245.069L245.07 2.10596H145.7Z" fill="#FF5D02"/>
<path d="M334.308 0C298.894 0 279.337 21.3228 279.337 55.8078L279.337 165.97C279.337 200.192 298.894 221.252 334.308 221.252H336.951C372.629 221.252 391.921 200.192 391.921 165.97L391.921 55.8078C391.921 21.3228 372.629 0 336.951 0H334.308ZM334.308 23.1655H336.951C357.829 23.1655 366.022 36.8542 366.022 57.3873L366.022 163.601C366.022 184.398 357.829 198.086 336.951 198.086H334.308C312.901 198.086 304.973 184.398 304.973 163.601L304.973 57.3873C304.973 36.8542 312.901 23.1655 334.308 23.1655Z" fill="#FF5D02"/>
<path d="M421.618 2.10596L421.618 219.146H447.517V149.644H471.038C509.888 149.644 524.159 131.743 524.159 105.156L524.159 46.8575C524.159 18.9536 510.681 2.10596 471.039 2.10596H421.618ZM447.518 23.692H469.717C490.595 23.692 498.26 32.1158 498.26 47.9105L498.259 104.366C498.259 118.318 490.331 128.058 469.717 128.058H447.517L447.518 23.692Z" fill="#FF5D02"/>
<path d="M604.784 0C569.37 0 549.813 21.3228 549.813 55.8078L549.813 165.97C549.813 200.192 569.37 221.252 604.783 221.252H607.426C643.104 221.252 662.397 200.192 662.397 165.97L662.397 55.8078C662.397 21.3228 643.104 0 607.426 0H604.784ZM604.784 23.1655H607.426C628.305 23.1655 636.497 36.8542 636.497 57.3873L636.497 163.601C636.497 184.398 628.304 198.086 607.426 198.086H604.783C583.377 198.086 575.448 184.398 575.448 163.601L575.448 57.3873C575.448 36.8542 583.377 23.1655 604.784 23.1655Z" fill="#FF5D02"/>
<path d="M692.094 2.10596L692.093 219.146H749.443C783.535 219.146 797.013 201.772 797.013 175.974V146.605C797.013 127.652 788.028 118.175 776.135 112.384L776.135 98.2849C787.763 91.4405 793.578 81.4372 793.578 67.4853V40.5396C793.578 15.0049 777.985 2.10596 744.421 2.10596H692.094ZM717.2 21.8493H741.25C761.335 21.8493 768.207 30.2731 768.207 43.6985V70.6442C768.207 85.3859 758.957 93.5465 742.836 93.5465H717.2V21.8493ZM717.2 120.281H744.685C759.485 120.281 771.906 126.862 771.906 144.763V173.341C771.906 188.609 766.092 199.402 746.535 199.402H717.2V120.281Z" fill="#FF5D02"/>
<path d="M825.783 2.10596L825.783 219.146H873.882C912.995 219.146 928.324 202.825 928.324 171.499L928.324 146.605C928.324 117.648 913.26 100.801 873.882 100.801H851.682V2.10596H825.783ZM851.682 122.387H873.882C895.024 122.387 902.424 131.337 902.424 148.711L902.424 170.446C902.424 189.399 895.024 197.56 873.882 197.56H851.682L851.682 122.387Z" fill="#FF5D02"/>
<path d="M955.859 2.10596L955.859 219.146H1051V197.56H981.758V121.86H1041.22V100.801H981.758L981.758 23.692H1049.41V2.10596H955.859Z" fill="#FF5D02"/>
</svg>
