<svg width="325" height="43" viewBox="0 0 325 43" fill="none" xmlns="http://www.w3.org/2000/svg">
<path d="M12.9378 0.403076C4.60287 0.403076 0 5.41885 0 13.5308V29.8785C0 37.9285 4.60287 42.8823 12.9378 42.8823H13.5598C21.9569 42.8823 26.4976 37.9285 26.4976 29.8785V13.5308C26.4976 5.41885 21.9569 0.403076 13.5598 0.403076H12.9378ZM12.9378 5.85232H13.5598C18.4737 5.85232 20.4019 9.0723 20.4019 13.9023V29.3212C20.4019 34.2131 18.4737 37.4331 13.5598 37.4331H12.9378C7.89951 37.4331 6.03348 34.2131 6.03348 29.3212V13.9023C6.03348 9.0723 7.89951 5.85232 12.9378 5.85232Z" fill="#FF5D02"/>
<path d="M28.851 0.898455V5.97616H39.2385V42.3869H45.3342V5.97616H55.6596V0.898455H28.851Z" fill="#FF5D02"/>
<path d="M60.0025 0.898455V42.3869H66.0981V23.9339H79.2847V42.3869H85.3804V0.898455H79.2847V18.7942H66.0981V0.898455H60.0025Z" fill="#FF5D02"/>
<path d="M104.677 0.403076C96.3419 0.403076 91.739 5.41885 91.739 13.5308V29.8785C91.739 37.9285 96.3419 42.8823 104.677 42.8823H105.299C113.696 42.8823 118.237 37.9285 118.237 29.8785V13.5308C118.237 5.41885 113.696 0.403076 105.299 0.403076H104.677ZM104.677 5.85232H105.299C110.213 5.85232 112.141 9.0723 112.141 13.9023V29.3212C112.141 34.2131 110.213 37.4331 105.299 37.4331H104.677C99.6385 37.4331 97.7725 34.2131 97.7725 29.3212V13.9023C97.7725 9.0723 99.6385 5.85232 104.677 5.85232Z" fill="#FF5D02"/>
<path d="M124.604 0.898455V42.3869H163.417V0.898455H157.322V37.3092H146.996V0.898455H140.963V37.3092H130.7V0.898455H124.604Z" fill="#FF5D02"/>
<path d="M170.511 0.898455V42.3869H192.903V37.3092H176.607V23.81H190.602V18.8562H176.607V5.97616H192.53V0.898455H170.511Z" fill="#FF5D02"/>
<path d="M198.985 0.898455V42.3869H205.081V23.9339H218.267V42.3869H224.363V0.898455H218.267V18.7942H205.081V0.898455H198.985Z" fill="#FF5D02"/>
<path d="M231.468 0.898455V42.3869H237.564L252.616 11.7969H253.736V42.3869H259.521V0.898455H253.487L238.434 31.4885H237.19V0.898455H231.468Z" fill="#FF5D02"/>
<path d="M278.753 0.898455C269.485 0.898455 265.753 4.73769 265.753 12.2923V15.0169C265.753 20.3423 267.868 23.6242 271.724 25.1723L264.758 42.3869H271.164L277.758 26.2869H284.289V42.3869H290.322V0.898455H278.753ZM278.753 5.85232H284.289V21.3331H278.753C273.714 21.3331 271.786 19.4135 271.786 15.0169V12.2923C271.786 8.08153 273.466 5.85232 278.753 5.85232Z" fill="#FF5D02"/>
<path d="M295.104 0.898455L304.372 20.9615L294.793 42.3869H300.702L307.98 26.2869H310.157L317.559 42.3869H324.028L314.262 21.395L323.219 0.898455H317.31L310.654 16.0077H308.602L301.573 0.898455H295.104Z" fill="#FF5D02"/>
</svg>
