<svg width="322" height="171" viewBox="0 0 322 171" fill="none" xmlns="http://www.w3.org/2000/svg">
<path d="M61.8137 121.038V120.038H60.8137H41.7143H40.7143V121.038V139.172C40.7143 143.432 40.0121 146.168 38.7203 147.834C37.4779 149.436 35.5372 150.234 32.5319 150.234H31.3076C28.3684 150.234 26.3862 149.439 25.0948 147.823C23.7611 146.154 23.0027 143.417 23.0027 139.172V31.1235C23.0027 27.2393 23.6707 24.5861 24.9539 22.9143C26.1912 21.3021 28.1421 20.427 31.1852 20.427H32.4095C35.585 20.427 37.4521 21.3068 38.5919 22.8897C39.7915 24.5557 40.347 27.2069 40.347 31.1235V46.9132V47.9132H41.347H60.4464H61.4464V46.9132V31.1235C61.4464 22.269 59.332 14.8309 54.5748 9.60099C49.802 4.35388 42.5177 1.49146 32.5319 1.49146H31.3076C21.4414 1.49146 14.0444 4.35498 9.12284 9.58883C4.21135 14.8119 1.90332 22.2492 1.90332 31.1235V139.172C1.90332 148.884 4.26515 156.428 9.22546 161.54C14.1912 166.658 21.5952 169.169 31.3076 169.169H32.5319C42.4824 169.169 49.8645 166.662 54.7433 161.533C59.6127 156.415 61.8137 148.867 61.8137 139.172V121.038ZM73.0072 2.588H72.0072V3.588V167.073V168.073H73.0072H122.347H123.347V167.073V151.112V150.112H122.347H93.1066L93.1066 90.8428H117.328H118.328V89.8428V71.1498V70.1498H117.328H93.1066L93.1066 20.5488H121.735H122.735V19.5488V3.588V2.588H121.735H73.0072ZM134.462 2.588H133.462V3.588V167.073V168.073H134.462H153.562H154.562V167.073L154.562 91.2083H157.158L173.152 167.279L173.319 168.073H174.13H194.454H195.716L195.428 166.844L175.743 83.0259V74.5644L193.709 3.8342L194.026 2.588H192.74H173.763H172.975L172.791 3.35456L156.814 69.9061H154.562L154.562 3.588V2.588H153.562H134.462ZM258.494 121.038V120.038H257.494H238.395H237.395V121.038V139.172C237.395 143.432 236.693 146.168 235.401 147.834C234.158 149.436 232.218 150.234 229.212 150.234H227.988C225.049 150.234 223.067 149.439 221.775 147.823C220.442 146.154 219.683 143.417 219.683 139.172V31.1235C219.683 27.2393 220.351 24.5861 221.634 22.9143C222.872 21.3021 224.823 20.427 227.866 20.427H229.09C232.266 20.427 234.133 21.3068 235.272 22.8897C236.472 24.5557 237.028 27.2069 237.028 31.1235L237.028 46.9132V47.9132H238.028H257.127H258.127V46.9132V31.1235C258.127 22.269 256.013 14.8309 251.255 9.60099C246.483 4.35388 239.198 1.49146 229.212 1.49146H227.988C218.122 1.49146 210.725 4.35498 205.803 9.58883C200.892 14.8119 198.584 22.2492 198.584 31.1235V139.172C198.584 148.884 200.946 156.428 205.906 161.54C210.872 166.658 218.276 169.169 227.988 169.169H229.212C239.163 169.169 246.545 166.662 251.424 161.533C256.293 156.415 258.494 148.867 258.494 139.172V121.038ZM269.688 2.588H268.688V3.588L268.688 167.073V168.073H269.688H319.028H320.028V167.073V151.112V150.112H319.028H289.787L289.787 90.8428H314.008H315.008V89.8428V71.1498V70.1498H314.008H289.787V20.5488H318.416H319.416V19.5488V3.588V2.588H318.416H269.688Z" stroke="white" stroke-width="2"/>
</svg>
