<svg width="1380" height="221" viewBox="0 0 1380 221" fill="none" xmlns="http://www.w3.org/2000/svg">
<path d="M277.482 131.048V128.548H274.982H219.452H216.952V131.048C216.952 140.321 211.396 149.262 199.432 156.012C187.432 162.783 169.189 167.19 144.593 167.19H135.082C110.918 167.19 92.8839 162.848 80.9514 154.458C69.1741 146.177 63.0304 133.734 63.0304 116.634V103.753C63.0304 87.293 69.1543 74.9902 80.9514 66.6955C92.8925 58.2997 110.934 53.8096 135.082 53.8096H144.593C169.382 53.8096 187.388 57.8471 199.103 64.3448C210.721 70.7892 216.031 79.5481 216.031 89.3387V91.8387H218.531H273.755H276.255V89.3387C276.255 60.3276 262.387 38.4747 238.903 23.995C215.544 9.59224 182.737 2.5 144.593 2.5H135.082C98.2898 2.5 65.2056 9.98621 41.2443 26.4389C17.1553 42.9792 2.5 68.4473 2.5 103.753V116.634C2.5 151.636 17.157 177.248 41.2306 194.015C65.1873 210.7 98.2717 218.5 135.082 218.5H144.593C182.777 218.5 215.883 210.703 239.532 195.884C263.269 181.01 277.482 159.028 277.482 131.048Z" stroke="white" stroke-width="5"/>
<path d="M310.714 5.26018H308.214V7.76018V213.24V215.74H310.714H539.279H541.779V213.24V170.61V168.11H539.279H367.211V131.094H520.564H523.064V128.594V89.032V86.532H520.564H367.211V52.5829H537.745H540.245V50.0829V7.76018V5.26018H537.745H310.714Z" stroke="white" stroke-width="5"/>
<path d="M575.567 5.26018H573.067V7.76018V213.24V215.74H575.567H629.564H632.064V213.24V132.935H641L750.474 215.238L751.141 215.74H751.976H824.994H832.496L826.493 211.24L691.276 109.863V102.602L823.972 9.80894L830.477 5.26018H822.539H751.976H751.19L750.546 5.70949L638.596 83.7718H632.064V7.76018V5.26018H629.564H575.567Z"  stroke="white" stroke-width="5" />
<path class='svg__letter-s' d="M1100.2 131.048V128.548H1097.7H1042.17H1039.67V131.048C1039.67 140.321 1034.12 149.262 1022.15 156.012C1010.15 162.783 991.91 167.19 967.314 167.19H957.804C933.639 167.19 915.605 162.848 903.673 154.458C891.896 146.177 885.752 133.734 885.752 116.634V103.753C885.752 87.293 891.876 74.9902 903.673 66.6955C915.614 58.2997 933.656 53.8096 957.804 53.8096H967.314C992.103 53.8096 1010.11 57.8471 1021.82 64.3448C1033.44 70.7892 1038.75 79.5481 1038.75 89.3387V91.8387H1041.25H1096.48H1098.98V89.3387C1098.98 60.3276 1085.11 38.4747 1061.62 23.995C1038.27 9.59224 1005.46 2.5 967.314 2.5H957.804C921.011 2.5 887.927 9.98621 863.966 26.4389C839.877 42.9792 825.221 68.4473 825.221 103.753V116.634C825.221 151.636 839.878 177.248 863.952 194.015C887.909 210.7 920.993 218.5 957.804 218.5H967.314C1005.5 218.5 1038.6 210.703 1062.25 195.884C1085.99 181.01 1100.2 159.028 1100.2 131.048Z" stroke="white" stroke-width="5" />
<path class='svg__letter-e' d="M1133.44 5.26018H1130.94V7.76018V213.24V215.74H1133.44H1362H1364.5V213.24V170.61V168.11H1362H1189.93V131.094H1343.29H1345.79V128.594V89.032V86.532H1343.29H1189.93V52.5829H1360.47H1362.97V50.0829V7.76018V5.26018H1360.47H1133.44Z" stroke="white" stroke-width="5" />
<style>
    .svg__letter-s, .svg__letter-e {
        transition: transform 0.5s;
    }
    svg:hover > .svg__letter-s {
        transform: scaleX(1.2) translateX(-10%);
    }
    svg:hover > .svg__letter-e {
        transform: scaleX(0.8) translateX(25%);
    }
</style>
</svg>
